HIERARCHY
ROOT Hips
{
	OFFSET 0.00 0.00 0.00
	CHANNELS 6 Xposition Yposition Zposition Yrotation Xrotation Zrotation
	JOINT Spine
	{
		OFFSET	0.0000	9.2263	1.5771
		CHANNELS 3 Xrotation Yrotation Zrotation
		JOINT Spine1
		{
			OFFSET	0.0000	16.2540	-0.1656
			CHANNELS 3 Xrotation Yrotation Zrotation
			JOINT Spine2
			{
				OFFSET	0.0000	13.6396	-1.2923
				CHANNELS 3 Xrotation Yrotation Zrotation
				JOINT Neck
				{
					OFFSET	0.0000	13.8774	-4.3542
					CHANNELS 3 Xrotation Yrotation Zrotation
					JOINT Neck1
					{
						OFFSET	0.0000	4.3400	0.9269
						CHANNELS 3 Xrotation Yrotation Zrotation
						JOINT Head
						{
							OFFSET	0.0000	4.0266	0.8585
							CHANNELS 3 Xrotation Yrotation Zrotation
							End Site
							{
								OFFSET 0.0000 23.0297 0.1231
							}
						}
					}
				}
				JOINT LeftShoulder
				{
					OFFSET	6.1442	10.1870	-3.7932
					CHANNELS 3 Zrotation Xrotation Yrotation
					JOINT LeftArm
					{
						OFFSET	12.3191	-1.1130	-1.7935
						CHANNELS 3 Zrotation Xrotation Yrotation
						JOINT LeftForeArm
						{
							OFFSET	27.6870	0.0000	0.0000
							CHANNELS 3 Xrotation Zrotation Yrotation
							JOINT LeftHand
							{
								OFFSET	27.8738	0.0000	0.0000
								CHANNELS 3 Zrotation Yrotation Xrotation
								JOINT LeftHandThumb1
								{
									OFFSET	2.3785	-1.0029	2.6209
									CHANNELS 3 Zrotation Xrotation Yrotation
									JOINT LeftHandThumb2
									{
										OFFSET	3.3624	-1.0029	2.8398
										CHANNELS 3 Zrotation Xrotation Yrotation
										JOINT LeftHandThumb3
										{
											OFFSET	4.5018	-1.3445	2.1783
											CHANNELS 3 Zrotation Xrotation Yrotation
											End Site
											{
												OFFSET 2.6000 -1.0000 1.0000
											}
										}
									}
								}
								JOINT LeftHandMiddle1
								{
									OFFSET	10.4639	0.6148	0.4298
									CHANNELS 3 Zrotation Xrotation Yrotation
									JOINT LeftHandMiddle2
									{
										OFFSET	5.7921	0.0000	0.0000
										CHANNELS 3 Zrotation Xrotation Yrotation
										JOINT LeftHandMiddle3
										{
											OFFSET	3.7132	0.0000	0.0000
											CHANNELS 3 Zrotation Xrotation Yrotation
											End Site
											{
												OFFSET 2.3000 0.0000 0.0000
											}
										}
									}
								}
								JOINT LeftHandIndex1
								{
									OFFSET	10.3945	0.6148	2.7055
									CHANNELS 3 Zrotation Xrotation Yrotation
									JOINT LeftHandIndex2
									{
										OFFSET	5.5493	0.0000	0.0000
										CHANNELS 3 Zrotation Xrotation Yrotation
										JOINT LeftHandIndex3
										{
											OFFSET	3.3911	0.0000	0.0000
											CHANNELS 3 Zrotation Xrotation Yrotation
											End Site
											{
												OFFSET 2.5000 0.0000 0.0000
											}
										}
									}
								}
								JOINT LeftHandRing1
								{
									OFFSET	10.3252	0.3211	-1.8755
									CHANNELS 3 Zrotation Xrotation Yrotation
									JOINT LeftHandRing2
									{
										OFFSET	5.4452	0.0000	0.0000
										CHANNELS 3 Zrotation Xrotation Yrotation
										JOINT LeftHandRing3
										{
											OFFSET	3.7132	0.0000	0.0000
											CHANNELS 3 Zrotation Xrotation Yrotation
											End Site
											{
												OFFSET 2.0000 0.0000 0.0000
											}
										}
									}
								}
								JOINT LeftHandPinky1
								{
									OFFSET	10.0130	-0.0783	-3.9671
									CHANNELS 3 Zrotation Xrotation Yrotation
									JOINT LeftHandPinky2
									{
										OFFSET	3.6763	0.0000	0.0000
										CHANNELS 3 Zrotation Xrotation Yrotation
										JOINT LeftHandPinky3
										{
											OFFSET	2.8113	0.0000	0.0000
											CHANNELS 3 Zrotation Xrotation Yrotation
											End Site
											{
												OFFSET 2.9000 0.0000 0.0000
											}
										}
									}
								}
							}
						}
					}
				}
				JOINT RightShoulder
				{
					OFFSET	-6.1402	10.1870	-3.7932
					CHANNELS 3 Zrotation Xrotation Yrotation
					JOINT RightArm
					{
						OFFSET	-12.3231	-1.1130	-1.7935
						CHANNELS 3 Zrotation Xrotation Yrotation
						JOINT RightForeArm
						{
							OFFSET	-27.6870	0.0000	0.0000
							CHANNELS 3 Xrotation Zrotation Yrotation
							JOINT RightHand
							{
								OFFSET	-27.8738	0.0000	0.0000
								CHANNELS 3 Zrotation Yrotation Xrotation
								JOINT RightHandThumb1
								{
									OFFSET	-2.5178	-0.9367	2.5137
									CHANNELS 3 Zrotation Xrotation Yrotation
									JOINT RightHandThumb2
									{
										OFFSET	-3.2638	-1.0870	2.9669
										CHANNELS 3 Zrotation Xrotation Yrotation
										JOINT RightHandThumb3
										{
											OFFSET	-4.4165	-1.3703	2.1350
											CHANNELS 3 Zrotation Xrotation Yrotation
											End Site
											{
												OFFSET -2.6000 -1.0000 1.0000
											}
										}
									}
								}
								JOINT RightHandIndex1
								{
									OFFSET	-10.4665	0.4896	2.7120
									CHANNELS 3 Zrotation Xrotation Yrotation
									JOINT RightHandIndex2
									{
										OFFSET	-5.3768	0.0000	0.0000
										CHANNELS 3 Zrotation Xrotation Yrotation
										JOINT RightHandIndex3
										{
											OFFSET	-3.3855	0.0000	0.0000
											CHANNELS 3 Zrotation Xrotation Yrotation
											End Site
											{
												OFFSET -2.6000 0.0000 0.0000
											}
										}
									}
								}
								JOINT RightHandMiddle1
								{
									OFFSET	-10.7596	0.4896	0.4278
									CHANNELS 3 Zrotation Xrotation Yrotation
									JOINT RightHandMiddle2
									{
										OFFSET	-5.6168	0.0000	0.0000
										CHANNELS 3 Zrotation Xrotation Yrotation
										JOINT RightHandMiddle3
										{
											OFFSET	-3.7364	0.0000	0.0000
											CHANNELS 3 Zrotation Xrotation Yrotation
											End Site
											{
												OFFSET -2.3000 0.0000 0.0000
											}
										}
									}
								}
								JOINT RightHandRing1
								{
									OFFSET	-10.4702	0.3879	-1.9363
									CHANNELS 3 Zrotation Xrotation Yrotation
									JOINT RightHandRing2
									{
										OFFSET	-5.4013	0.0000	0.0000
										CHANNELS 3 Zrotation Xrotation Yrotation
										JOINT RightHandRing3
										{
											OFFSET	-3.3916	0.0000	0.0000
											CHANNELS 3 Zrotation Xrotation Yrotation
											End Site
											{
												OFFSET -2.2000 0.0000 0.0000
											}
										}
									}
								}
								JOINT RightHandPinky1
								{
									OFFSET	-9.9715	-0.1191	-3.9540
									CHANNELS 3 Zrotation Xrotation Yrotation
									JOINT RightHandPinky2
									{
										OFFSET	-3.6528	0.0000	0.0000
										CHANNELS 3 Zrotation Xrotation Yrotation
										JOINT RightHandPinky3
										{
											OFFSET	-2.7820	0.0000	0.0000
											CHANNELS 3 Zrotation Xrotation Yrotation
											End Site
											{
												OFFSET -2.9000 0.0000 0.0000
											}
										}
									}
								}
							}
						}
					}
				}
			}
		}
	}
	JOINT LeftUpLeg
	{
		OFFSET	9.6338	-3.2733	0.0000
		CHANNELS 3 Xrotation Yrotation Zrotation
		JOINT LeftLeg
		{
			OFFSET	0.0000	-41.7300	-1.7300
			CHANNELS 3 Xrotation Yrotation Zrotation
			JOINT LeftFoot
			{
				OFFSET	0.0126	-39.1900	-0.8477
				CHANNELS 3 Xrotation Yrotation Zrotation
				JOINT LeftToeBase
				{
					OFFSET	-0.1833	-12.1931	8.2823
					CHANNELS 3 Xrotation Yrotation Zrotation
					End Site
					{
						OFFSET 0.0000 0.0000 10.1681
					}
				}
			}
		}
	}
	JOINT RightUpLeg
	{
		OFFSET	-9.6338	-3.2733	0.0000
		CHANNELS 3 Xrotation Yrotation Zrotation
		JOINT RightLeg
		{
			OFFSET	0.0000	-41.7300	-1.7300
			CHANNELS 3 Xrotation Yrotation Zrotation
			JOINT RightFoot
			{
				OFFSET	0.0126	-39.1900	-0.8477
				CHANNELS 3 Xrotation Yrotation Zrotation
				JOINT RightToeBase
				{
					OFFSET	-0.1833	-12.1931	8.2823
					CHANNELS 3 Xrotation Yrotation Zrotation
					End Site
					{
						OFFSET 0.0032 0.0000 10.1681
					}
				}
			}
		}
	}
}
MOTION
Frames: 4
Frame Time: 0.0333333
0.2172 88.7298 -1.0062 -21.6340 6.2573 -1.0640 -0.9423 -0.0101 2.5189 0.7358 -0.0299 2.3023 0.6739 0.0530 2.3092 9.9678 0.8768 -2.1832 -0.0000 0.0000 -0.0000 -7.5068 6.5719 -5.4736 -8.0601 -0.2138 -0.5362 -47.6536 0.4435 -30.4550 0.0000 0.0000 -120.0434 7.2971 -9.5266 -1.2018 -20.6792 31.3997 34.9795 -19.6666 -20.2253 44.0431 -4.6206 -6.3729 24.0411 -94.6038 1.1790 1.2625 -98.9969 -1.1740 1.0028 -49.4908 -0.3558 0.7719 -94.6199 1.1786 1.2632 -98.9809 -1.1737 1.0028 -49.4908 -0.3558 0.7719 -94.6199 1.1786 1.2632 -98.9809 -1.1737 1.0028 -49.4908 -0.3558 0.7719 -94.5269 1.1840 5.3465 -99.0835 2.8609 1.6441 -49.4908 -0.3558 0.7719 11.0384 1.8193 21.8287 38.1873 0.9159 33.7915 0.0000 -0.0000 124.9801 -7.8270 8.5071 -2.3442 16.5054 48.1298 -26.8255 50.7553 10.7691 -52.2303 7.4268 19.3616 -14.0411 100.2835 -0.5662 -2.6846 102.9013 -2.7949 -2.2273 51.4510 -0.8610 -1.7868 100.2835 -0.5662 -2.6846 102.9013 -2.7949 -2.2273 51.4510 -0.8610 -1.7868 100.2835 -0.5662 -2.6846 102.9013 -2.7949 -2.2273 51.4510 -0.8610 -1.7868 100.2835 -0.5662 -2.6846 102.9013 -2.7949 -2.2273 51.4510 -0.8610 -1.7868 -35.7360 -1.5617 15.7057 39.0141 3.5568 2.0310 -8.7413 -3.1706 -15.8858 -0.8470 0.0000 -0.0000 -24.8958 -5.5956 -18.3962 40.7932 -6.6023 2.4157 -19.6082 1.8809 16.6899 -0.0426 0.0000 -0.0000 
0.7017 88.5431 -1.0304 -21.3700 6.9694 -1.2640 -0.9524 -0.1448 2.3039 0.7069 -0.2520 2.2787 0.6493 -0.1775 2.2856 9.9763 0.8458 -2.2326 -0.0000 0.0000 -0.0000 -7.8728 6.5500 -5.6288 -8.0243 -0.2944 -0.2750 -47.5169 -0.0337 -30.9807 0.0000 0.0000 -120.3573 7.3441 -9.5080 -1.5876 -20.6792 31.3997 34.9795 -19.6666 -20.2253 44.0431 -4.6206 -6.3729 24.0411 -94.6038 1.1790 1.2626 -98.9970 -1.1740 1.0028 -49.4908 -0.3558 0.7719 -94.6199 1.1787 1.2632 -98.9809 -1.1737 1.0028 -49.4907 -0.3558 0.7719 -94.6199 1.1787 1.2632 -98.9809 -1.1737 1.0028 -49.4907 -0.3558 0.7719 -94.5269 1.1840 5.3465 -99.0835 2.8609 1.6441 -49.4908 -0.3558 0.7719 10.7943 1.6197 22.0489 37.5214 0.0340 34.4273 0.0000 0.0000 124.9347 -7.5105 8.4589 -2.4549 16.5055 48.1298 -26.8255 50.7553 10.7691 -52.2303 7.4268 19.3616 -14.0411 100.2836 -0.5662 -2.6846 102.9013 -2.7949 -2.2273 51.4510 -0.8610 -1.7868 100.2836 -0.5662 -2.6846 102.9013 -2.7949 -2.2273 51.4510 -0.8610 -1.7868 100.2836 -0.5662 -2.6846 102.9013 -2.7949 -2.2273 51.4510 -0.8610 -1.7868 100.2836 -0.5662 -2.6846 102.9013 -2.7949 -2.2273 51.4510 -0.8610 -1.7868 -36.9518 -2.5007 15.5086 39.9576 2.6171 1.9240 -9.4206 -3.3684 -15.7119 -0.6513 -0.0000 -0.0000 -25.6274 -5.3849 -18.6617 40.8698 -6.9334 2.5862 -19.7072 2.8483 17.1477 -0.0340 0.0000 -0.0000 
0.8526 88.2039 -0.8708 -19.1335 7.8006 -1.2927 -0.9456 -0.2809 2.1847 0.7153 -0.4793 2.3184 0.6606 -0.4129 2.3219 9.8411 0.7679 -2.2368 -0.0000 0.0000 -0.0000 -8.8048 6.1966 -5.7734 -8.1490 -0.2658 -0.3682 -47.3595 1.0667 -31.5465 0.0000 -0.0000 -119.9849 7.6238 -9.4693 -1.0559 -20.6792 31.3997 34.9795 -19.6666 -20.2253 44.0431 -4.6206 -6.3729 24.0411 -94.6038 1.1790 1.2625 -98.9969 -1.1740 1.0028 -49.4908 -0.3558 0.7719 -94.6199 1.1787 1.2632 -98.9809 -1.1737 1.0028 -49.4908 -0.3558 0.7719 -94.6199 1.1787 1.2632 -98.9809 -1.1737 1.0028 -49.4908 -0.3558 0.7719 -94.5269 1.1840 5.3465 -99.0835 2.8609 1.6441 -49.4908 -0.3558 0.7719 10.7663 1.4801 21.9787 37.6122 -0.4965 34.9780 0.0000 0.0000 124.5138 -6.6460 8.4631 -2.9665 16.5055 48.1298 -26.8255 50.7553 10.7691 -52.2303 7.4268 19.3616 -14.0411 100.2836 -0.5662 -2.6846 102.9013 -2.7949 -2.2272 51.4510 -0.8610 -1.7868 100.2836 -0.5662 -2.6846 102.9013 -2.7949 -2.2272 51.4510 -0.8610 -1.7868 100.2836 -0.5662 -2.6846 102.9013 -2.7949 -2.2272 51.4510 -0.8610 -1.7868 100.2836 -0.5662 -2.6846 102.9013 -2.7949 -2.2272 51.4510 -0.8610 -1.7868 -38.9128 -3.5807 14.6653 41.0888 1.7214 2.1393 -9.9870 -4.5763 -15.5112 -0.4429 -0.0000 -0.0000 -26.0962 -5.9188 -19.0211 41.7498 -7.3843 2.6370 -20.4664 1.9271 17.6678 -0.0320 0.0000 -0.0000 
0.7102 87.8498 -0.6107 -13.9810 8.2754 -0.9069 -0.9577 -0.2226 2.1309 0.7086 -0.3062 2.3156 0.6545 -0.2477 2.3068 9.6874 0.2908 -2.0152 -0.0000 0.0000 -0.0000 -10.1745 3.1497 -4.8506 -7.9903 -0.0655 -1.7573 -47.1168 4.0699 -31.5617 -0.0000 -0.0000 -118.9743 8.5348 -9.4446 0.7210 -20.6792 31.3997 34.9795 -19.6666 -20.2252 44.0431 -4.6206 -6.3729 24.0411 -94.6038 1.1790 1.2625 -98.9969 -1.1740 1.0028 -49.4908 -0.3558 0.7719 -94.6199 1.1786 1.2632 -98.9808 -1.1737 1.0028 -49.4908 -0.3558 0.7719 -94.6199 1.1786 1.2632 -98.9808 -1.1737 1.0028 -49.4908 -0.3558 0.7719 -94.5269 1.1840 5.3465 -99.0835 2.8609 1.6441 -49.4908 -0.3558 0.7719 10.9639 1.4200 22.0079 40.1626 -1.9127 35.5081 -0.0000 0.0000 123.5417 -4.7071 8.6547 -4.0063 16.5054 48.1298 -26.8255 50.7553 10.7691 -52.2303 7.4268 19.3616 -14.0411 100.2836 -0.5662 -2.6846 102.9013 -2.7949 -2.2273 51.4510 -0.8610 -1.7868 100.2836 -0.5662 -2.6846 102.9013 -2.7949 -2.2273 51.4510 -0.8610 -1.7868 100.2836 -0.5662 -2.6846 102.9013 -2.7949 -2.2273 51.4510 -0.8610 -1.7868 100.2836 -0.5662 -2.6846 102.9013 -2.7949 -2.2273 51.4510 -0.8610 -1.7868 -41.1712 -4.3832 13.0089 41.6594 1.0603 2.2745 -9.9019 -8.0920 -14.9187 -0.4384 -0.0000 -0.0000 -25.3396 -7.5452 -19.2245 42.7495 -7.7762 1.7585 -21.8924 -1.1372 18.5485 -0.0293 -0.0000 -0.0000 
